<?xml version="1.0" encoding="UTF-8" standalone="no"?>
<!-- Created with Inkscape (http://www.inkscape.org/) -->

<svg
   xmlns:dc="http://purl.org/dc/elements/1.1/"
   xmlns:cc="http://creativecommons.org/ns#"
   xmlns:rdf="http://www.w3.org/1999/02/22-rdf-syntax-ns#"
   xmlns:svg="http://www.w3.org/2000/svg"
   xmlns="http://www.w3.org/2000/svg"
   xmlns:sodipodi="http://sodipodi.sourceforge.net/DTD/sodipodi-0.dtd"
   xmlns:inkscape="http://www.inkscape.org/namespaces/inkscape"
   width="210mm"
   height="297mm"
   viewBox="0 0 210 297"
   version="1.1"
   id="svg8"
   sodipodi:docname="drawing.svg"
   inkscape:version="0.92.3 (2405546, 2018-03-11)">
  <defs
     id="defs2" />
  <sodipodi:namedview
     id="base"
     pagecolor="#ffffff"
     bordercolor="#666666"
     borderopacity="1.0"
     inkscape:pageopacity="0.0"
     inkscape:pageshadow="2"
     inkscape:zoom="2.8"
     inkscape:cx="228.141"
     inkscape:cy="698.29214"
     inkscape:document-units="mm"
     inkscape:current-layer="layer1"
     showgrid="false"
     inkscape:snap-grids="true"
     inkscape:window-width="1920"
     inkscape:window-height="1025"
     inkscape:window-x="0"
     inkscape:window-y="27"
     inkscape:window-maximized="1" />
  <metadata
     id="metadata5">
    <rdf:RDF>
      <cc:Work
         rdf:about="">
        <dc:format>image/svg+xml</dc:format>
        <dc:type
           rdf:resource="http://purl.org/dc/dcmitype/StillImage" />
        <dc:title></dc:title>
      </cc:Work>
    </rdf:RDF>
  </metadata>
  <g
     inkscape:label="Layer 1"
     inkscape:groupmode="layer"
     id="layer1">
    <path
       style="fill:#000000;fill-opacity:0;stroke-width:0.26458332"
       id="path10"
       d="m 37.833813,76.322279 c 5.098738,2.254353 10.000591,4.916138 14.899105,7.56889 5.125315,2.779713 10.22436,5.606664 15.28222,8.507299 2.172824,1.262801 4.240506,2.686894 6.233152,4.215135 1.23817,1.001922 2.462715,2.024094 3.617354,3.122004 0.795266,0.713653 1.499563,1.516633 2.293919,2.230953 0.470781,0.41007 0.881012,0.88213 1.333497,1.30962 0.210151,0.16989 0.384625,0.37656 0.562599,0.57826 0,0 -3.404571,2.05534 -3.404571,2.05534 v 0 c -0.169553,-0.19542 -0.342672,-0.3877 -0.541914,-0.55412 -0.435975,-0.43765 -0.859284,-0.88638 -1.310052,-1.30968 -0.780175,-0.72871 -1.475833,-1.54063 -2.270758,-2.25446 -1.138282,-1.08953 -2.333593,-2.118503 -3.556042,-3.112296 -1.958081,-1.52196 -3.991258,-2.942498 -6.106149,-4.239546 -4.94913,-2.989665 -9.94219,-5.905791 -15.029733,-8.655161 -4.967338,-2.655946 -9.961356,-5.332682 -15.27474,-7.242143 0,0 3.272113,-2.220095 3.272113,-2.220095 z"
       inkscape:connector-curvature="0" />
    <path
       style="fill:none;stroke:#000000;stroke-width:0.265;stroke-linecap:butt;stroke-linejoin:miter;stroke-opacity:1;stroke-miterlimit:4;stroke-dasharray:none"
       d="M 35.814116,85.322533 C 74.300928,124.61115 74.300928,124.61115 74.300928,124.61115 L 115.19317,105.63502 113.58955,85.055264 Z"
       id="path12"
       inkscape:connector-curvature="0"
       inkscape:export-xdpi="96"
       inkscape:export-ydpi="96" />
    <path
       style="fill:#666666;fill-opacity:0;stroke-width:1.00157481;stroke-miterlimit:4;stroke-dasharray:none"
       d="m 209.73953,396.93319 -71.06599,-72.45042 4.04061,-0.72742 c 2.22233,-0.40008 67.33063,-0.75362 144.68511,-0.78563 l 140.64449,-0.0582 0.48198,2.27284 c 1.1704,5.51925 5.69155,72.80326 4.93951,73.51007 -0.90334,0.849 -151.17961,70.68921 -152.10308,70.68921 -0.30615,0 -32.53634,-32.60269 -71.62263,-72.45043 z"
       id="path14"
       inkscape:connector-curvature="0"
       transform="scale(0.26458333)"
       inkscape:export-xdpi="96"
       inkscape:export-ydpi="96" />
    <path
       style="fill:#666666;fill-opacity:0;stroke-width:1.00157481;stroke-miterlimit:4;stroke-dasharray:none"
       d="m 209.73953,396.93319 -71.06599,-72.45042 4.04061,-0.72742 c 2.22233,-0.40008 67.33063,-0.75362 144.68511,-0.78563 l 140.64449,-0.0582 0.48198,2.27284 c 1.1704,5.51925 5.69155,72.80326 4.93951,73.51007 -0.90334,0.849 -151.17961,70.68921 -152.10308,70.68921 -0.30615,0 -32.53634,-32.60269 -71.62263,-72.45043 z"
       id="path4524"
       inkscape:connector-curvature="0"
       transform="scale(0.26458333)"
       inkscape:export-xdpi="96"
       inkscape:export-ydpi="96" />
    <path
       style="fill:#666666;fill-opacity:0;stroke-width:1.00157481;stroke-miterlimit:4;stroke-dasharray:none"
       d="m 209.73953,396.93319 -71.06599,-72.45042 4.04061,-0.72742 c 2.22233,-0.40008 67.33063,-0.75362 144.68511,-0.78563 l 140.64449,-0.0582 0.48198,2.27284 c 1.1704,5.51925 5.69155,72.80326 4.93951,73.51007 -0.90334,0.849 -151.17961,70.68921 -152.10308,70.68921 -0.30615,0 -32.53634,-32.60269 -71.62263,-72.45043 z"
       id="path4526"
       inkscape:connector-curvature="0"
       transform="scale(0.26458333)"
       inkscape:export-xdpi="96"
       inkscape:export-ydpi="96" />
    <path
       style="fill:#666666;fill-opacity:0;stroke-width:1.00157481;stroke-miterlimit:4;stroke-dasharray:none"
       d="m 209.46154,396.82738 -70.83539,-72.40065 4.16532,-0.68274 c 2.29092,-0.3755 67.43615,-0.71643 144.76717,-0.75761 l 140.60184,-0.0749 0.54996,4.29315 c 1.53293,11.96651 5.56833,70.91931 4.89644,71.53164 -1.14183,1.04062 -151.62781,70.66112 -152.53733,70.56953 -0.42495,-0.0427 -32.64855,-32.65808 -71.60801,-72.47844 z"
       id="path4528"
       inkscape:connector-curvature="0"
       transform="scale(0.26458333)"
       inkscape:export-xdpi="96"
       inkscape:export-ydpi="96" />
    <path
       style="fill:#666666;fill-opacity:0;stroke-width:1.00157481;stroke-miterlimit:4;stroke-dasharray:none"
       d="m 209.46154,396.82738 -70.83539,-72.40065 4.16532,-0.68274 c 2.29092,-0.3755 67.43615,-0.71643 144.76717,-0.75761 l 140.60184,-0.0749 0.54996,4.29315 c 1.53293,11.96651 5.56833,70.91931 4.89644,71.53164 -1.14183,1.04062 -151.62781,70.66112 -152.53733,70.56953 -0.42495,-0.0427 -32.64855,-32.65808 -71.60801,-72.47844 z"
       id="path4530"
       inkscape:connector-curvature="0"
       transform="scale(0.26458333)"
       inkscape:export-xdpi="96"
       inkscape:export-ydpi="96" />
    <path
       style="fill:#666666;fill-opacity:0;stroke-width:1.00157481;stroke-miterlimit:4;stroke-dasharray:none"
       d="m 209.46154,396.82738 -70.83539,-72.40065 4.16532,-0.68274 c 2.29092,-0.3755 67.43615,-0.71643 144.76717,-0.75761 l 140.60184,-0.0749 0.54996,4.29315 c 1.53293,11.96651 5.56833,70.91931 4.89644,71.53164 -1.14183,1.04062 -151.62781,70.66112 -152.53733,70.56953 -0.42495,-0.0427 -32.64855,-32.65808 -71.60801,-72.47844 z"
       id="path4532"
       inkscape:connector-curvature="0"
       transform="scale(0.26458333)"
       inkscape:export-xdpi="96"
       inkscape:export-ydpi="96" />
    <path
       style="fill:#4d4d4d;fill-opacity:0;stroke-width:1.00157481;stroke-miterlimit:4;stroke-dasharray:none"
       d="m 209.46154,396.82738 -70.83539,-72.40065 4.16532,-0.68274 c 2.29092,-0.3755 67.43615,-0.71643 144.76717,-0.75761 l 140.60184,-0.0749 0.54996,4.29315 c 1.53293,11.96651 5.56833,70.91931 4.89644,71.53164 -1.14183,1.04062 -151.62781,70.66112 -152.53733,70.56953 -0.42495,-0.0427 -32.64855,-32.65808 -71.60801,-72.47844 z"
       id="path4534"
       inkscape:connector-curvature="0"
       transform="scale(0.26458333)"
       inkscape:export-xdpi="96"
       inkscape:export-ydpi="96" />
    <path
       style="fill:#4d4d4d;fill-opacity:0;stroke-width:1.00157481;stroke-miterlimit:4;stroke-dasharray:none"
       d="m 209.46154,396.82738 -70.83539,-72.40065 4.16532,-0.68274 c 2.29092,-0.3755 67.43615,-0.71643 144.76717,-0.75761 l 140.60184,-0.0749 0.54996,4.29315 c 1.53293,11.96651 5.56833,70.91931 4.89644,71.53164 -1.14183,1.04062 -151.62781,70.66112 -152.53733,70.56953 -0.42495,-0.0427 -32.64855,-32.65808 -71.60801,-72.47844 z"
       id="path4536"
       inkscape:connector-curvature="0"
       transform="scale(0.26458333)"
       inkscape:export-xdpi="96"
       inkscape:export-ydpi="96" />
    <path
       style="fill:#4d4d4d;fill-opacity:0;stroke-width:1.00157481;stroke-miterlimit:4;stroke-dasharray:none"
       d="m 209.46154,396.82738 -70.83539,-72.40065 4.16532,-0.68274 c 2.29092,-0.3755 67.43615,-0.71643 144.76717,-0.75761 l 140.60184,-0.0749 0.54996,4.29315 c 1.53293,11.96651 5.56833,70.91931 4.89644,71.53164 -1.14183,1.04062 -151.62781,70.66112 -152.53733,70.56953 -0.42495,-0.0427 -32.64855,-32.65808 -71.60801,-72.47844 z"
       id="path4538"
       inkscape:connector-curvature="0"
       transform="scale(0.26458333)"
       inkscape:export-xdpi="96"
       inkscape:export-ydpi="96" />
    <path
       style="fill:#4d4d4d;fill-opacity:0;stroke-width:1.00157481;stroke-miterlimit:4;stroke-dasharray:none"
       d="m 209.46154,396.82738 -70.83539,-72.40065 4.16532,-0.68274 c 2.29092,-0.3755 67.43615,-0.71643 144.76717,-0.75761 l 140.60184,-0.0749 0.54996,4.29315 c 1.53293,11.96651 5.56833,70.91931 4.89644,71.53164 -1.14183,1.04062 -151.62781,70.66112 -152.53733,70.56953 -0.42495,-0.0427 -32.64855,-32.65808 -71.60801,-72.47844 z"
       id="path4540"
       inkscape:connector-curvature="0"
       transform="scale(0.26458333)"
       inkscape:export-xdpi="96"
       inkscape:export-ydpi="96" />
    <path
       style="fill:#000000;fill-opacity:0;stroke-width:1.00157481;stroke-miterlimit:4;stroke-dasharray:none"
       d="m 209.46154,396.82738 -70.83539,-72.40065 4.16532,-0.68274 c 2.29092,-0.3755 67.43615,-0.71643 144.76717,-0.75761 l 140.60184,-0.0749 0.54996,4.29315 c 1.53293,11.96651 5.56833,70.91931 4.89644,71.53164 -1.14183,1.04062 -151.62781,70.66112 -152.53733,70.56953 -0.42495,-0.0427 -32.64855,-32.65808 -71.60801,-72.47844 z"
       id="path4542"
       inkscape:connector-curvature="0"
       transform="scale(0.26458333)"
       inkscape:export-xdpi="96"
       inkscape:export-ydpi="96" />
    <path
       style="fill:#000000;fill-opacity:0.01069468;stroke-width:1.00157481;stroke-miterlimit:4;stroke-dasharray:none"
       d="m 209.46154,396.82738 -70.83539,-72.40065 4.16532,-0.68274 c 2.29092,-0.3755 67.43615,-0.71643 144.76717,-0.75761 l 140.60184,-0.0749 0.54996,4.29315 c 1.53293,11.96651 5.56833,70.91931 4.89644,71.53164 -1.14183,1.04062 -151.62781,70.66112 -152.53733,70.56953 -0.42495,-0.0427 -32.64855,-32.65808 -71.60801,-72.47844 z"
       id="path5254"
       inkscape:connector-curvature="0"
       transform="scale(0.26458333)"
       inkscape:export-xdpi="96"
       inkscape:export-ydpi="96" />
    <path
       style="fill:#808000;fill-opacity:0.01069468;stroke-width:1.00157481;stroke-miterlimit:4;stroke-dasharray:none"
       d="m 209.46127,396.82738 -70.83565,-72.40065 3.66051,-0.6994 c 2.01328,-0.38467 67.15862,-0.7256 144.76743,-0.75761 l 141.10692,-0.0582 0.54996,4.29315 c 1.53293,11.96651 5.56833,70.91931 4.89644,71.53164 -1.14183,1.04062 -151.62781,70.66112 -152.53733,70.56953 -0.42495,-0.0427 -32.64867,-32.65808 -71.60828,-72.47844 z"
       id="path5256"
       inkscape:connector-curvature="0"
       transform="scale(0.26458333)"
       inkscape:export-xdpi="96"
       inkscape:export-ydpi="96" />
    <text
       xml:space="preserve"
       style="font-style:normal;font-weight:normal;font-size:10.58333302px;line-height:1.25;font-family:sans-serif;letter-spacing:0px;word-spacing:0px;fill:#000000;fill-opacity:1;stroke:none;stroke-width:0.265;stroke-miterlimit:4;stroke-dasharray:none"
       x="59.066563"
       y="99.755081"
       id="text5260"
       inkscape:export-xdpi="96"
       inkscape:export-ydpi="96"><tspan
         sodipodi:role="line"
         id="tspan5258"
         x="59.066563"
         y="99.755081"
         style="stroke-width:0.265;fill:#ffffff;stroke-miterlimit:4;stroke-dasharray:none">Entropy</tspan></text>
    <flowRoot
       xml:space="preserve"
       id="flowRoot5364"
       style="fill:black;fill-opacity:1;stroke:none;font-family:sans-serif;font-style:normal;font-weight:normal;font-size:40px;line-height:1.25;letter-spacing:0px;word-spacing:0px"><flowRegion
         id="flowRegion5366"><rect
           id="rect5368"
           width="31.071428"
           height="43.214287"
           x="238.21428"
           y="346.44824" /></flowRegion><flowPara
         id="flowPara5370" /></flowRoot>    <flowRoot
       xml:space="preserve"
       id="flowRoot5372"
       style="fill:black;fill-opacity:1;stroke:none;font-family:sans-serif;font-style:normal;font-weight:normal;font-size:40px;line-height:1.25;letter-spacing:0px;word-spacing:0px"><flowRegion
         id="flowRegion5374"><rect
           id="rect5376"
           width="57.142857"
           height="67.14286"
           x="201.07143"
           y="346.44824" /></flowRegion><flowPara
         id="flowPara5378" /></flowRoot>    <path
       style="fill:#333333;fill-opacity:1;stroke-width:1.00157481;stroke-miterlimit:4;stroke-dasharray:none"
       d="m 209.0605,396.75093 -71.98796,-73.48767 12.17282,-0.094 c 14.25498,-0.11009 279.41579,-1.0748 279.46404,-1.01674 0.018,0.0216 1.36278,17.20881 2.98844,38.19374 1.85151,23.90021 2.82993,38.28024 2.61895,38.49122 -0.18524,0.18524 -34.6013,16.2366 -76.48013,35.6697 -41.87884,19.43309 -76.28843,35.42256 -76.46577,35.53216 -0.17734,0.1096 -32.71702,-32.87018 -72.31039,-73.2884 z"
       id="path5380"
       inkscape:connector-curvature="0"
       transform="scale(0.26458333)"
       inkscape:export-xdpi="96"
       inkscape:export-ydpi="96" />
    <text
       xml:space="preserve"
       style="font-style:normal;font-weight:normal;font-size:10.58333302px;line-height:1.25;font-family:sans-serif;letter-spacing:0px;word-spacing:0px;fill:#ffffff;fill-opacity:1;stroke:none;stroke-width:0.26458332"
       x="59.625744"
       y="91.664436"
       id="text5384"><tspan
         sodipodi:role="line"
         id="tspan5382"
         x="59.625744"
         y="101.02821"
         style="fill:#ffffff;stroke-width:0.26458332" /></text>
    <text
       xml:space="preserve"
       style="font-style:normal;font-weight:normal;font-size:10.58333302px;line-height:1.25;font-family:sans-serif;letter-spacing:0px;word-spacing:0px;fill:#000000;fill-opacity:1;stroke:none;stroke-width:0.26458332"
       x="12.756697"
       y="117.74479"
       id="text5400"><tspan
         sodipodi:role="line"
         id="tspan5398"
         x="12.756697"
         y="117.74479"
         style="stroke-width:0.26458332;font-size:4.93888889px;fill:#ffffff">Entropy</tspan></text>
    <text
       xml:space="preserve"
       style="font-style:normal;font-weight:normal;font-size:4.23333311px;line-height:1.25;font-family:sans-serif;letter-spacing:0px;word-spacing:0px;fill:#ffffff;fill-opacity:1;stroke:none;stroke-width:0.26458332"
       x="21.733631"
       y="123.60342"
       id="text5406"><tspan
         sodipodi:role="line"
         id="tspan5404"
         x="21.733631"
         y="123.60342"
         style="font-size:4.23333311px;fill:#ffffff;stroke-width:0.26458332">Mind</tspan></text>
    <text
       xml:space="preserve"
       style="font-style:normal;font-weight:normal;font-size:4.23333311px;line-height:1.25;font-family:sans-serif;letter-spacing:0px;word-spacing:0px;fill:#000000;fill-opacity:1;stroke:none;stroke-width:0.26458332"
       x="54.239582"
       y="94.782738"
       id="text5410"><tspan
         sodipodi:role="line"
         id="tspan5408"
         x="54.239582"
         y="98.528244"
         style="stroke-width:0.26458332" /></text>
    <text
       xml:space="preserve"
       style="font-style:normal;font-weight:normal;font-size:4.23333311px;line-height:1.25;font-family:sans-serif;letter-spacing:0px;word-spacing:0px;fill:#000000;fill-opacity:1;stroke:none;stroke-width:0.265;stroke-miterlimit:4;stroke-dasharray:none"
       x="59.342262"
       y="97.806541"
       id="text5416"
       inkscape:export-xdpi="96"
       inkscape:export-ydpi="96"><tspan
         sodipodi:role="line"
         id="tspan5414"
         x="59.342262"
         y="97.806541"
         style="font-style:normal;font-variant:normal;font-weight:normal;font-stretch:normal;font-size:7.05555534px;font-family:Dyuthi;-inkscape-font-specification:'Dyuthi, Normal';font-variant-ligatures:normal;font-variant-caps:normal;font-variant-numeric:normal;font-feature-settings:normal;text-align:start;writing-mode:lr-tb;text-anchor:start;fill:#800000;stroke-width:0.265;stroke-miterlimit:4;stroke-dasharray:none"><tspan
   style="fill:#008080;stroke-width:0.265;stroke-miterlimit:4;stroke-dasharray:none"
   id="tspan5432">Entro</tspan>pyc</tspan><tspan
         sodipodi:role="line"
         x="59.342262"
         y="106.62598"
         style="font-style:normal;font-variant:normal;font-weight:normal;font-stretch:normal;font-size:7.05555534px;font-family:Dyuthi;-inkscape-font-specification:'Dyuthi, Normal';font-variant-ligatures:normal;font-variant-caps:normal;font-variant-numeric:normal;font-feature-settings:normal;text-align:start;writing-mode:lr-tb;text-anchor:start;fill:#ffffff;stroke-width:0.265;stroke-miterlimit:4;stroke-dasharray:none"
         id="tspan5696">          boundary </tspan></text>
    <flowRoot
       xml:space="preserve"
       id="flowRoot5422"
       style="font-style:normal;font-weight:normal;font-size:16px;line-height:1.25;font-family:sans-serif;letter-spacing:0px;word-spacing:0px;fill:#000000;fill-opacity:1;stroke:none"
       transform="scale(0.26458333)"><flowRegion
         id="flowRegion5424"><rect
           id="rect5426"
           width="1.0714285"
           height="22.5"
           x="270.35715"
           y="331.44824" /></flowRegion><flowPara
         id="flowPara5428" /><flowPara
         id="flowPara5687" /></flowRoot>    <text
       xml:space="preserve"
       style="font-style:normal;font-weight:normal;font-size:4.23333333px;line-height:1.25;font-family:Dyuthi;letter-spacing:0px;word-spacing:0px;fill:#ffffff;fill-opacity:1;stroke:none;stroke-width:0.26458332;-inkscape-font-specification:'Dyuthi, Normal';font-stretch:normal;font-variant:normal;text-anchor:start;text-align:start;writing-mode:lr;font-variant-ligatures:normal;font-variant-caps:normal;font-variant-numeric:normal;font-feature-settings:normal;"
       x="66.145836"
       y="106.21652"
       id="text5656"><tspan
         sodipodi:role="line"
         id="tspan5658" /></text>
    <text
       xml:space="preserve"
       style="font-style:normal;font-weight:normal;font-size:4.23333333px;line-height:1.25;font-family:Dyuthi;letter-spacing:0px;word-spacing:0px;fill:#000000;fill-opacity:1;stroke:none;stroke-width:0.26458332;-inkscape-font-specification:'Dyuthi, Normal';font-stretch:normal;font-variant:normal;text-anchor:start;text-align:start;writing-mode:lr;font-variant-ligatures:normal;font-variant-caps:normal;font-variant-numeric:normal;font-feature-settings:normal;"
       x="64.444939"
       y="105.64955"
       id="text5662"><tspan
         sodipodi:role="line"
         id="tspan5664" /></text>
    <text
       xml:space="preserve"
       style="font-style:normal;font-variant:normal;font-weight:normal;font-stretch:normal;font-size:4.23333311px;line-height:1.25;font-family:Dyuthi;-inkscape-font-specification:'Dyuthi, Normal';font-variant-ligatures:normal;font-variant-caps:normal;font-variant-numeric:normal;font-feature-settings:normal;text-align:start;letter-spacing:0px;word-spacing:0px;writing-mode:lr-tb;text-anchor:start;fill:#ffffff;fill-opacity:1;stroke:none;stroke-width:0.26458332;"
       x="62.460564"
       y="105.27158"
       id="text5668"><tspan
         sodipodi:role="line"
         id="tspan5666"
         x="62.460564"
         y="108.76491"
         style="stroke-width:0.26458332;fill:#ffffff;" /></text>
    <text
       xml:space="preserve"
       style="font-style:normal;font-variant:normal;font-weight:normal;font-stretch:normal;font-size:4.23333311px;line-height:1.25;font-family:Dyuthi;-inkscape-font-specification:'Dyuthi, Normal';font-variant-ligatures:normal;font-variant-caps:normal;font-variant-numeric:normal;font-feature-settings:normal;text-align:start;letter-spacing:0px;word-spacing:0px;writing-mode:lr-tb;text-anchor:start;fill:#ffffff;fill-opacity:1;stroke:none;stroke-width:0.26458332;"
       x="62.838539"
       y="103.57069"
       id="text5672"><tspan
         sodipodi:role="line"
         id="tspan5670"
         x="62.838539"
         y="107.06401"
         style="stroke-width:0.26458332;fill:#ffffff;" /></text>
    <text
       xml:space="preserve"
       style="font-style:normal;font-variant:normal;font-weight:normal;font-stretch:normal;font-size:4.23333311px;line-height:1.25;font-family:Dyuthi;-inkscape-font-specification:'Dyuthi, Normal';font-variant-ligatures:normal;font-variant-caps:normal;font-variant-numeric:normal;font-feature-settings:normal;text-align:start;letter-spacing:0px;word-spacing:0px;writing-mode:lr-tb;text-anchor:start;fill:#ffffff;fill-opacity:1;stroke:none;stroke-width:0.26458332;"
       x="62.933037"
       y="107.06696"
       id="text5676"><tspan
         sodipodi:role="line"
         id="tspan5674"
         x="62.933037"
         y="110.56029"
         style="stroke-width:0.26458332;fill:#ffffff;" /></text>
    <text
       xml:space="preserve"
       style="font-style:normal;font-variant:normal;font-weight:normal;font-stretch:normal;font-size:4.23333311px;line-height:1.25;font-family:Dyuthi;-inkscape-font-specification:'Dyuthi, Normal';font-variant-ligatures:normal;font-variant-caps:normal;font-variant-numeric:normal;font-feature-settings:normal;text-align:start;letter-spacing:0px;word-spacing:0px;writing-mode:lr-tb;text-anchor:start;fill:#ffffff;fill-opacity:1;stroke:none;stroke-width:0.26458332"
       x="63.405502"
       y="105.17708"
       id="text5680"><tspan
         sodipodi:role="line"
         id="tspan5678"
         x="63.405502"
         y="108.6704"
         style="fill:#ffffff;stroke-width:0.26458332" /></text>
  </g>
</svg>
